<svg width="145" height="31" viewBox="0 0 145 31" fill="none" xmlns="http://www.w3.org/2000/svg">
<g id="WebStudio">
<path d="M8.242 6.592H11.57L13.676 12.702L15.808 6.592H19.11L15.938 14.99L18.278 20.866L23.504 6.54H27.404L20.02 25H16.926L13.676 17.252L10.452 25H7.358L0 6.54H3.848L9.1 20.866L11.388 14.99L8.242 6.592ZM34.227 25.26C33.135 25.26 32.147 25.078 31.263 24.714C30.379 24.3327 29.625 23.8213 29.001 23.18C28.377 22.5213 27.8916 21.776 27.545 20.944C27.2156 20.0947 27.051 19.202 27.051 18.266C27.051 16.966 27.337 15.7787 27.909 14.704C28.4983 13.6293 29.3303 12.7713 30.405 12.13C31.497 11.4713 32.7796 11.142 34.253 11.142C35.7436 11.142 37.0176 11.4713 38.075 12.13C39.1323 12.7713 39.9383 13.6293 40.493 14.704C41.065 15.7613 41.351 16.9053 41.351 18.136C41.351 18.344 41.3423 18.5607 41.325 18.786C41.3076 18.994 41.2903 19.1673 41.273 19.306H30.743C30.8123 19.9993 31.0116 20.606 31.341 21.126C31.6876 21.646 32.121 22.0447 32.641 22.322C33.1783 22.582 33.7503 22.712 34.357 22.712C35.0503 22.712 35.7003 22.5473 36.307 22.218C36.931 21.8713 37.3556 21.4207 37.581 20.866L40.571 21.698C40.2416 22.3913 39.765 23.0067 39.141 23.544C38.5343 24.0813 37.815 24.506 36.983 24.818C36.151 25.1127 35.2323 25.26 34.227 25.26ZM30.665 17.096H37.789C37.7196 16.4027 37.5203 15.8047 37.191 15.302C36.879 14.782 36.463 14.3833 35.943 14.106C35.423 13.8113 34.8423 13.664 34.201 13.664C33.577 13.664 33.005 13.8113 32.485 14.106C31.9823 14.3833 31.5663 14.782 31.237 15.302C30.925 15.8047 30.7343 16.4027 30.665 17.096ZM52.0014 25.26C50.9614 25.26 50.0341 25.026 49.2194 24.558C48.4048 24.09 47.7634 23.4487 47.2954 22.634V25H44.2534V6.02H47.7374V13.768C48.2228 12.9533 48.8554 12.312 49.6354 11.844C50.4328 11.376 51.3601 11.142 52.4174 11.142C53.3014 11.142 54.1074 11.3327 54.8354 11.714C55.5634 12.078 56.1874 12.5893 56.7074 13.248C57.2448 13.9067 57.6521 14.6607 57.9294 15.51C58.2241 16.3593 58.3714 17.2693 58.3714 18.24C58.3714 19.2107 58.2068 20.1207 57.8774 20.97C57.5654 21.8193 57.1234 22.5733 56.5514 23.232C55.9794 23.8733 55.3034 24.376 54.5234 24.74C53.7608 25.0867 52.9201 25.26 52.0014 25.26ZM51.0394 22.296C51.5941 22.296 52.0968 22.192 52.5474 21.984C53.0154 21.7587 53.4141 21.464 53.7434 21.1C54.0901 20.736 54.3501 20.3113 54.5234 19.826C54.7141 19.3233 54.8094 18.8033 54.8094 18.266C54.8094 17.5207 54.6534 16.836 54.3414 16.212C54.0468 15.5707 53.6308 15.0593 53.0934 14.678C52.5734 14.2967 51.9581 14.106 51.2474 14.106C50.7448 14.106 50.2594 14.2273 49.7914 14.47C49.3408 14.6953 48.9334 15.0073 48.5694 15.406C48.2228 15.8047 47.9454 16.2553 47.7374 16.758V20.008C47.8414 20.3547 48.0061 20.6667 48.2314 20.944C48.4741 21.2213 48.7514 21.464 49.0634 21.672C49.3754 21.8627 49.6961 22.0187 50.0254 22.14C50.3721 22.244 50.7101 22.296 51.0394 22.296Z" fill="#2196F3"/>
<path d="M72.8479 11.376C72.7266 11.2547 72.5013 11.09 72.1719 10.882C71.8599 10.674 71.4699 10.4747 71.0019 10.284C70.5513 10.0933 70.0573 9.92867 69.5199 9.79C68.9826 9.634 68.4366 9.556 67.8819 9.556C66.9113 9.556 66.1746 9.738 65.6719 10.102C65.1866 10.466 64.9439 10.9773 64.9439 11.636C64.9439 12.1387 65.0999 12.5373 65.4119 12.832C65.7239 13.1267 66.1919 13.378 66.8159 13.586C67.4399 13.794 68.2199 14.0193 69.1559 14.262C70.3693 14.5567 71.4179 14.9207 72.3019 15.354C73.2033 15.77 73.8879 16.3247 74.3559 17.018C74.8413 17.694 75.0839 18.5953 75.0839 19.722C75.0839 20.71 74.9019 21.5593 74.5379 22.27C74.1739 22.9633 73.6713 23.5267 73.0299 23.96C72.3886 24.3933 71.6606 24.714 70.8459 24.922C70.0313 25.1127 69.1646 25.208 68.2459 25.208C67.3273 25.208 66.4086 25.1127 65.4899 24.922C64.5713 24.7313 63.6873 24.4627 62.8379 24.116C61.9886 23.752 61.2086 23.3187 60.4979 22.816L62.0839 19.722C62.2399 19.878 62.5173 20.086 62.9159 20.346C63.3146 20.5887 63.7999 20.84 64.3719 21.1C64.9439 21.3427 65.5679 21.5507 66.2439 21.724C66.9199 21.8973 67.6046 21.984 68.2979 21.984C69.2686 21.984 70.0053 21.8193 70.5079 21.49C71.0106 21.1607 71.2619 20.6927 71.2619 20.086C71.2619 19.5313 71.0626 19.098 70.6639 18.786C70.2653 18.474 69.7106 18.2053 68.9999 17.98C68.2893 17.7373 67.4486 17.4773 66.4779 17.2C65.3166 16.8707 64.3459 16.5067 63.5659 16.108C62.7859 15.692 62.2053 15.172 61.8239 14.548C61.4426 13.924 61.2519 13.144 61.2519 12.208C61.2519 10.9427 61.5466 9.88533 62.1359 9.036C62.7426 8.16933 63.5573 7.51933 64.5799 7.086C65.6026 6.63533 66.7379 6.41 67.9859 6.41C68.8526 6.41 69.6673 6.50533 70.4299 6.696C71.2099 6.88667 71.9379 7.138 72.6139 7.45C73.2899 7.762 73.8966 8.1 74.4339 8.464L72.8479 11.376ZM86.0966 24.298C85.8019 24.4193 85.4466 24.558 85.0306 24.714C84.6146 24.87 84.1639 24.9913 83.6786 25.078C83.2106 25.182 82.7339 25.234 82.2486 25.234C81.6072 25.234 81.0179 25.1213 80.4806 24.896C79.9432 24.6707 79.5099 24.3153 79.1806 23.83C78.8686 23.3273 78.7126 22.6773 78.7126 21.88V14.054H76.9186V11.376H78.7126V6.956H82.1966V11.376H85.0566V14.054H82.1966V20.71C82.2139 21.178 82.3439 21.516 82.5866 21.724C82.8292 21.932 83.1326 22.036 83.4966 22.036C83.8606 22.036 84.2159 21.9753 84.5626 21.854C84.9092 21.7327 85.1866 21.6287 85.3946 21.542L86.0966 24.298ZM88.5611 19.904V11.376H92.0451V19.15C92.0451 20.19 92.2357 20.9787 92.6171 21.516C92.9984 22.036 93.5617 22.296 94.3071 22.296C94.7577 22.296 95.1997 22.2093 95.6331 22.036C96.0837 21.8453 96.4911 21.568 96.8551 21.204C97.2364 20.84 97.5571 20.3807 97.8171 19.826V11.376H101.301V21.1C101.301 21.464 101.362 21.724 101.483 21.88C101.622 22.036 101.838 22.1313 102.133 22.166V25C101.786 25.052 101.492 25.0867 101.249 25.104C101.024 25.1387 100.816 25.156 100.625 25.156C100.001 25.156 99.4897 25.0173 99.0911 24.74C98.7097 24.4453 98.4844 24.0467 98.4151 23.544L98.3371 22.452C97.7304 23.3707 96.9504 24.0727 95.9971 24.558C95.0437 25.026 93.9951 25.26 92.8511 25.26C91.4471 25.26 90.3811 24.8093 89.6531 23.908C88.9251 22.9893 88.5611 21.6547 88.5611 19.904ZM104.711 18.188C104.711 16.8707 104.971 15.6833 105.491 14.626C106.011 13.5513 106.731 12.702 107.649 12.078C108.568 11.454 109.617 11.142 110.795 11.142C111.801 11.142 112.702 11.3933 113.499 11.896C114.314 12.3813 114.947 13.0053 115.397 13.768V6.02H118.881V21.1C118.881 21.464 118.942 21.724 119.063 21.88C119.185 22.036 119.393 22.1313 119.687 22.166V25C119.081 25.1213 118.587 25.182 118.205 25.182C117.581 25.182 117.061 25.026 116.645 24.714C116.247 24.402 116.021 23.9947 115.969 23.492L115.917 22.634C115.415 23.4833 114.73 24.1333 113.863 24.584C113.014 25.0347 112.121 25.26 111.185 25.26C110.249 25.26 109.383 25.078 108.585 24.714C107.805 24.35 107.121 23.8473 106.531 23.206C105.959 22.5647 105.509 21.8193 105.179 20.97C104.867 20.1033 104.711 19.176 104.711 18.188ZM115.397 20.008V16.758C115.224 16.2553 114.947 15.8047 114.565 15.406C114.184 15.0073 113.759 14.6953 113.291 14.47C112.823 14.2273 112.355 14.106 111.887 14.106C111.35 14.106 110.865 14.2187 110.431 14.444C109.998 14.6693 109.617 14.9727 109.287 15.354C108.975 15.7353 108.733 16.1773 108.559 16.68C108.403 17.1827 108.325 17.7113 108.325 18.266C108.325 18.8207 108.412 19.3493 108.585 19.852C108.776 20.3373 109.045 20.762 109.391 21.126C109.738 21.49 110.137 21.776 110.587 21.984C111.055 22.192 111.558 22.296 112.095 22.296C112.425 22.296 112.754 22.244 113.083 22.14C113.43 22.0187 113.751 21.8627 114.045 21.672C114.357 21.464 114.626 21.2213 114.851 20.944C115.094 20.6493 115.276 20.3373 115.397 20.008ZM123.081 25V11.376H126.565V25H123.081ZM123.081 9.478V6.02H126.565V9.478H123.081ZM136.78 25.26C135.671 25.26 134.674 25.078 133.79 24.714C132.906 24.3327 132.152 23.8127 131.528 23.154C130.921 22.4953 130.453 21.7413 130.124 20.892C129.795 20.0427 129.63 19.15 129.63 18.214C129.63 17.2607 129.795 16.3593 130.124 15.51C130.453 14.6607 130.921 13.9067 131.528 13.248C132.152 12.5893 132.906 12.078 133.79 11.714C134.674 11.3327 135.671 11.142 136.78 11.142C137.889 11.142 138.877 11.3327 139.744 11.714C140.628 12.078 141.382 12.5893 142.006 13.248C142.63 13.9067 143.098 14.6607 143.41 15.51C143.739 16.3593 143.904 17.2607 143.904 18.214C143.904 19.15 143.739 20.0427 143.41 20.892C143.098 21.7413 142.63 22.4953 142.006 23.154C141.399 23.8127 140.654 24.3327 139.77 24.714C138.886 25.078 137.889 25.26 136.78 25.26ZM133.218 18.214C133.218 19.0113 133.374 19.722 133.686 20.346C133.998 20.9527 134.423 21.4293 134.96 21.776C135.497 22.1227 136.104 22.296 136.78 22.296C137.439 22.296 138.037 22.1227 138.574 21.776C139.111 21.412 139.536 20.9267 139.848 20.32C140.177 19.696 140.342 18.9853 140.342 18.188C140.342 17.408 140.177 16.706 139.848 16.082C139.536 15.458 139.111 14.9727 138.574 14.626C138.037 14.2793 137.439 14.106 136.78 14.106C136.104 14.106 135.497 14.288 134.96 14.652C134.423 14.9987 133.998 15.484 133.686 16.108C133.374 16.7147 133.218 17.4167 133.218 18.214Z" fill="black"/>
</g>
</svg>
